<svg width="141" height="24" viewBox="0 0 141 24" fill="none" xmlns="http://www.w3.org/2000/svg">
<g clip-path="url(#clip0_320_28884)">
<path d="M128.361 6.78208V10.4528C120.546 6.46189 117.17 0 117.17 0C117.985 0.0659185 118.799 0.171388 119.611 0.288158C120.778 0.457663 121.941 0.664837 123.088 0.949229C124.173 1.21479 125.316 1.50106 126.298 2.04536C128.016 2.99458 128.361 4.97779 128.361 6.78208ZM138.511 0.288158C137.342 0.457663 136.181 0.664837 135.033 0.949229C133.949 1.21479 132.805 1.50106 131.823 2.04536C130.108 2.98705 129.761 4.97779 129.761 6.78208V10.4528C137.578 6.46189 140.954 0 140.954 0C140.137 0.0659185 139.321 0.171388 138.511 0.288158ZM16.8801 11.3173C15.3532 10.8588 13.7867 10.5436 12.201 10.3756C10.0987 10.1496 8.56418 9.85702 7.59739 9.49792C6.6306 9.13882 6.14657 8.47587 6.14531 7.50906C6.14155 7.13177 6.22796 6.75901 6.3974 6.42166C6.56684 6.0843 6.81443 5.79208 7.11965 5.56918C7.7667 5.05438 8.90407 4.79762 10.5318 4.79887C12.2828 4.79887 13.6046 5.0707 14.4971 5.61438C15.3896 6.15805 15.9303 7.07714 16.1191 8.37165H20.8398C20.588 5.94962 19.6357 4.12211 17.9829 2.88911C16.33 1.65612 13.8752 1.03963 10.6186 1.03963C8.58181 1.03963 6.89306 1.32716 5.55239 1.90222C4.21172 2.47728 3.21346 3.26265 2.55761 4.25834C1.90026 5.24901 1.55562 6.41343 1.56816 7.60135C1.56816 9.18339 1.92881 10.4007 2.65013 11.2532C3.37145 12.1058 4.35964 12.7336 5.61471 13.1366C7.00576 13.5662 8.43274 13.87 9.87841 14.0444C11.3399 14.2102 12.5755 14.3853 13.5851 14.5699C14.5947 14.7545 15.3563 15.0363 15.8699 15.4155C16.386 15.7922 16.6334 16.3522 16.612 17.0955C16.612 17.9744 16.2154 18.6932 15.4224 19.252C14.6293 19.8107 13.3887 20.0882 11.7006 20.0844C9.78589 20.0844 8.32374 19.7504 7.31415 19.0825C6.30456 18.4145 5.72108 17.3215 5.56372 15.8035H0.708984C0.894035 17.6116 1.368 19.1183 2.13086 20.3236C2.89371 21.529 4.038 22.4456 5.56372 23.0734C7.08693 23.6911 9.10548 23.9994 11.6194 23.9981C13.7406 23.9981 15.5111 23.6955 16.9311 23.0903C18.3511 22.4851 19.4085 21.6476 20.1034 20.5779C20.8102 19.4886 21.1661 18.2097 21.123 16.9128C21.123 15.3308 20.7523 14.1084 20.0109 13.2459C19.2694 12.3833 18.2258 11.7404 16.8801 11.3173ZM31.2309 0.979358H27.3978C27.4192 1.30958 27.4192 1.74088 27.3978 2.27325C27.3829 2.74926 27.3311 3.2234 27.2429 3.69144C27.1397 4.55403 26.9597 5.12909 26.7029 5.41662C26.4461 5.70415 25.957 5.86863 25.2357 5.91007C24.8454 5.94972 24.4535 5.96983 24.0612 5.97033H22.9188V9.69944H26.9956V15.7376C26.9956 17.6473 27.1913 19.1672 27.5828 20.2973C27.7499 20.826 28.024 21.3149 28.3881 21.7338C28.7521 22.1526 29.1985 22.4925 29.6996 22.7325C30.7167 23.2247 32.1644 23.4708 34.0426 23.4708H37.0638V19.4158H35.2095C34.0766 19.4158 33.2218 19.3179 32.6452 19.122C32.3652 19.0308 32.1131 18.8698 31.9129 18.6542C31.7127 18.4387 31.5709 18.1757 31.501 17.8903C31.3159 17.2625 31.2234 16.2919 31.2234 14.9786V9.70509H37.0619V5.75939H31.2272L31.2309 0.979358ZM58.1935 11.8823V23.467H54.5189L54.0544 19.6776C53.3524 20.9744 52.2981 22.0476 51.0124 22.7739C49.6441 23.585 47.8987 23.9906 45.7763 23.9906C43.6362 23.9906 42.0148 23.5643 40.9121 22.7118C39.8093 21.8592 39.258 20.6664 39.258 19.1333C39.258 17.0993 40.0926 15.6302 41.7618 14.7262C42.299 14.4179 42.869 14.1703 43.4612 13.9879C44.1899 13.7743 44.9334 13.6144 45.6856 13.5095C46.5668 13.3752 47.7306 13.2364 49.177 13.0933C50.9067 12.9301 52.1164 12.7147 52.8063 12.4473C53.4961 12.1799 53.841 11.7178 53.841 11.0611V11.0291C53.841 10.3511 53.5257 9.78796 52.8969 9.33407C52.2681 8.88017 51.1616 8.65793 49.5755 8.65793C47.8043 8.65793 46.5328 8.94044 45.7612 9.50545C44.9895 10.0705 44.5489 10.8966 44.4394 11.984H39.7527C39.9793 9.84948 40.9058 8.1965 42.5322 7.02503C44.1586 5.85356 46.4038 5.26783 49.2677 5.26783C52.3758 5.26783 54.6417 5.80209 56.0654 6.8706C57.4892 7.93911 58.1985 9.60967 58.1935 11.8823ZM53.8694 14.6565C53.4325 14.9968 52.9267 15.2384 52.3871 15.3647C51.566 15.5839 50.7297 15.7419 49.8851 15.8374C48.547 15.9818 47.5399 16.1205 46.8639 16.2536C46.29 16.3479 45.7364 16.539 45.2268 16.8186C44.5055 17.2493 44.1448 17.8344 44.1448 18.574V18.606C44.1297 18.8978 44.1884 19.1886 44.3154 19.4519C44.4425 19.7152 44.6338 19.9424 44.8718 20.1127C45.3552 20.463 46.1426 20.6375 47.234 20.6363C48.441 20.6629 49.6354 20.3877 50.7084 19.8358C51.6414 19.3591 52.4424 18.6605 53.0404 17.8018C53.5686 17.0625 53.8578 16.18 53.8694 15.2724V14.6565ZM68.3883 0.975593H64.557C64.5784 1.30581 64.5784 1.73711 64.557 2.26948C64.5431 2.74555 64.4913 3.21977 64.4021 3.68767C64.3002 4.55026 64.1201 5.12532 63.8621 5.41285C63.604 5.70038 63.1168 5.86738 62.4006 5.91383C62.0103 5.95357 61.6183 5.97369 61.2261 5.9741H60.0931V9.70321H64.1699V15.7413C64.1699 17.6511 64.3656 19.171 64.7571 20.301C64.9242 20.8298 65.1983 21.3187 65.5624 21.7375C65.9265 22.1564 66.3728 22.4963 66.8739 22.7362C67.8935 23.2284 69.3412 23.4745 71.2169 23.4745H74.2381V19.4158H72.3857C71.2528 19.4158 70.398 19.3179 69.8214 19.122C69.5417 19.0307 69.2899 18.8696 69.09 18.654C68.8901 18.4385 68.7486 18.1756 68.6791 17.8903C68.494 17.2625 68.4015 16.2919 68.4015 14.9786V9.70509H74.2381V5.75939H68.3883V0.975593ZM94.9694 9.75594C95.711 11.1829 96.0873 12.7707 96.0646 14.3778V16.2612H80.4033C80.6299 17.5959 81.2171 18.6129 82.1651 19.3123C83.113 20.0116 84.4618 20.36 86.2116 20.3575C87.4881 20.3575 88.5021 20.178 89.2536 19.8189C89.97 19.4934 90.5531 18.9331 90.9058 18.2312H95.8493C95.128 20.1623 93.9384 21.6062 92.2805 22.563C90.6226 23.5197 88.5172 23.9969 85.9643 23.9943C83.6367 23.9943 81.7421 23.6177 80.2806 22.8643C78.8945 22.1894 77.7626 21.0881 77.0516 19.7228C76.3618 18.3756 76.0169 16.7992 76.0169 14.9936V14.7149C75.9863 13.0121 76.396 11.3302 77.2065 9.83128C78.0088 8.39522 79.2181 7.22713 80.6828 6.4732C82.206 5.66334 84.0382 5.25779 86.1795 5.25653C88.3825 5.25653 90.2154 5.66209 91.6782 6.4732C93.0765 7.22232 94.2215 8.36705 94.9694 9.76348V9.75594ZM91.5856 12.8993C91.2155 10.1471 89.445 8.77093 86.2739 8.77093C84.6248 8.77093 83.3119 9.13066 82.335 9.85011C81.3581 10.5696 80.735 11.586 80.4656 12.8993H91.5856ZM113.053 13.438C111.614 13.0839 110.147 12.8521 108.669 12.7449C106.711 12.5817 105.306 12.3864 104.452 12.1591C103.599 11.9319 103.171 11.4598 103.17 10.7428C103.173 10.4539 103.247 10.1702 103.388 9.91732C103.528 9.66445 103.729 9.45039 103.973 9.29452C104.509 8.90528 105.539 8.71004 107.062 8.70878C108.421 8.70878 109.491 8.89398 110.272 9.26438C110.65 9.43625 110.98 9.69775 111.233 10.026C111.486 10.3543 111.654 10.7395 111.724 11.1478H116.481C116.089 9.25684 115.137 7.8035 113.624 6.78773C112.11 5.77196 109.933 5.26344 107.09 5.26218C104.269 5.26218 102.174 5.8115 100.804 6.91015C99.4345 8.00879 98.7497 9.38993 98.7497 11.0536C98.7497 12.3268 99.0845 13.3124 99.7542 14.0105C100.424 14.7086 101.356 15.2171 102.549 15.5361C103.906 15.8805 105.292 16.1024 106.69 16.199C108.646 16.3635 110.067 16.5581 110.952 16.7829C111.837 17.0076 112.277 17.4703 112.273 18.1709C112.278 18.4946 112.196 18.8135 112.035 19.0949C111.875 19.3763 111.642 19.61 111.361 19.7718C110.753 20.1623 109.677 20.3575 108.132 20.3575C106.546 20.3575 105.35 20.1416 104.545 19.7096C104.15 19.4983 103.808 19.1998 103.547 18.8368C103.285 18.4739 103.109 18.0561 103.034 17.6153H98.0001C98.3286 19.7096 99.3017 21.2961 100.919 22.3746C102.537 23.4532 104.879 23.9925 107.946 23.9925C109.902 23.9925 111.538 23.7307 112.855 23.2071C114.172 22.6835 115.156 21.9747 115.806 21.0808C116.457 20.1803 116.798 19.0942 116.779 17.9845C116.779 16.6912 116.46 15.6899 115.822 14.9805C115.183 14.2711 114.261 13.7594 113.053 13.4455V13.438Z" fill="black"/>
</g>
<defs>
<clipPath id="clip0_320_28884">
<rect width="140.243" height="24" fill="white" transform="translate(0.708984)"/>
</clipPath>
</defs>
</svg>
